<svg width="299" height="109" viewBox="0 0 299 109" fill="none" xmlns="http://www.w3.org/2000/svg">
<path d="M71.8564 41.8758C72.3036 41.8758 72.5939 42.3292 72.432 42.7263L72.393 42.8052L54.1395 74.4217C53.9008 74.8343 53.3043 74.8343 53.0658 74.4214L34.8124 42.8055C34.5888 42.4182 34.8369 41.9391 35.2618 41.8808L35.349 41.8755L71.8564 41.8758Z" stroke="#141414" stroke-width="8.67644"/>
<path d="M157.084 63.0677H154.309L153.7 63.7444H164.054C164.009 63.7896 163.963 63.8347 163.918 63.8798C163.873 63.9249 163.805 63.9926 163.715 64.0828H147.745C147.519 64.3084 147.271 64.5339 147.001 64.7595C146.775 64.9851 146.527 65.2106 146.256 65.4362H151.196L150.316 66.1129H159.52L158.978 66.4513H154.986C154.941 66.4964 154.85 66.5415 154.715 66.5866C154.625 66.6317 154.535 66.6994 154.444 66.7896H149.91L148.016 67.8047H150.655C150.068 68.0754 149.482 68.3235 148.895 68.5491C148.309 68.7295 147.7 68.9325 147.068 69.1581H144.632C143.098 69.6093 141.429 69.9476 139.624 70.1732H139.963C139.241 70.2634 138.497 70.3311 137.73 70.3762C136.963 70.4213 136.196 70.4439 135.429 70.4439C134.572 70.4439 133.714 70.4213 132.857 70.3762C132.045 70.3311 131.256 70.2634 130.489 70.1732H130.218C128.278 69.9476 126.541 69.6093 125.007 69.1581H127.444C126.767 68.9325 126.135 68.7295 125.549 68.5491C124.962 68.3235 124.376 68.0754 123.789 67.8047H121.15C120.834 67.6242 120.519 67.4663 120.203 67.331C119.887 67.1505 119.571 66.9701 119.255 66.7896H123.857L123.316 66.4513H127.308C127.263 66.361 127.196 66.2934 127.105 66.2483C127.015 66.2031 126.925 66.158 126.835 66.1129H117.631C117.451 66.0227 117.293 65.9099 117.158 65.7746C117.022 65.6392 116.887 65.5264 116.752 65.4362H111.744C111.518 65.2106 111.293 64.9851 111.067 64.7595C110.797 64.5339 110.548 64.3084 110.323 64.0828H126.293C126.248 63.9926 126.203 63.9249 126.158 63.8798C126.113 63.8347 126.068 63.7896 126.023 63.7444H115.669C115.488 63.564 115.308 63.3384 115.128 63.0677H117.902C117.857 62.9775 117.812 62.9098 117.767 62.8647C117.722 62.8196 117.676 62.7745 117.631 62.7294H126.09L125.481 61.7143H121.286L121.083 61.376H111.541C111.496 61.1955 111.428 61.0376 111.338 60.9023C111.248 60.7218 111.158 60.5413 111.067 60.3609H115.601L115.195 59.3458H113.571L113.436 59.0075H114.18C114.135 58.827 114.09 58.6691 114.045 58.5338C114 58.3533 113.955 58.1729 113.909 57.9924H113.368C113.368 57.812 113.346 57.6541 113.3 57.5187C113.3 57.3383 113.278 57.1578 113.233 56.9773H112.691C112.691 56.7969 112.669 56.639 112.624 56.5036C112.624 56.3683 112.624 56.2104 112.624 56.03V55.9623H112.556C112.556 55.8721 112.556 55.8044 112.556 55.7593C112.601 55.7142 112.624 55.669 112.624 55.6239H114.18C114.406 54.9021 114.879 54.5412 115.601 54.5412H128.459C129.181 54.5412 129.722 54.6314 130.083 54.8119C130.444 54.9923 130.85 55.263 131.301 55.6239H129.744L129.812 55.6916C129.902 55.7367 129.97 55.7818 130.015 55.8269C130.105 55.8721 130.173 55.9172 130.218 55.9623H130.286C130.872 56.4134 131.594 56.7518 132.451 56.9773H133.06C133.647 57.1578 134.436 57.248 135.429 57.248C136.015 57.248 136.557 57.2255 137.053 57.1804C137.549 57.1352 137.978 57.0676 138.339 56.9773H138.136C139.173 56.7518 139.827 56.4134 140.098 55.9623H139.963C140.053 55.7818 140.098 55.669 140.098 55.6239H140.775L140.842 55.3532C140.842 54.9472 140.685 54.5863 140.369 54.2705H139.827C139.421 53.8645 138.7 53.5261 137.662 53.2554H137.459C137.053 53.1201 136.579 53.0073 136.038 52.9171C135.496 52.7817 134.865 52.669 134.143 52.5787H133.737L130.963 52.1727C130.647 52.1276 130.331 52.0825 130.015 52.0374C129.744 51.9923 129.451 51.9471 129.135 51.902C127.286 51.5862 125.504 51.1351 123.789 50.5486H122.571C121.94 50.323 121.353 50.0975 120.812 49.8719H119.864C119.639 49.7817 119.413 49.6914 119.188 49.6012C118.962 49.4659 118.737 49.3305 118.511 49.1952H112.624C112.308 49.0147 112.015 48.8568 111.744 48.7215C111.473 48.541 111.203 48.3606 110.932 48.1801H123.519C123.293 47.9997 123.068 47.8418 122.842 47.7064C122.662 47.526 122.459 47.3455 122.233 47.1651H108.766C108.631 47.0748 108.518 46.962 108.428 46.8267C108.293 46.6914 108.18 46.5786 108.09 46.4884H111.609C111.203 46.0372 110.819 45.5861 110.458 45.1349H111.473L111.067 44.4582H104.571C104.526 44.368 104.481 44.3003 104.436 44.2552C104.39 44.2101 104.368 44.165 104.368 44.1199H119.797C119.707 43.9394 119.616 43.7815 119.526 43.6462C119.436 43.4657 119.346 43.2853 119.255 43.1048H107.413L107.007 42.0897H116.549L116.413 41.7514H113.571L113.436 41.413H114.789C114.789 41.3228 114.767 41.2551 114.722 41.21C114.722 41.1649 114.722 41.1198 114.722 41.0747H114.451L114.248 40.398H113.842L113.774 39.7213H113.639V39.3829H111.473C111.428 39.2927 111.406 39.1799 111.406 39.0445C111.406 38.9092 111.406 38.7964 111.406 38.7062H109.443L109.376 38.0295H117.09C117.045 37.9393 117.022 37.8265 117.022 37.6911C117.022 37.5558 117.022 37.443 117.022 37.3528H118.105V37.2851C118.105 37.0595 118.105 36.834 118.105 36.6084C118.105 36.3828 118.128 36.1798 118.173 35.9994H115.263C115.308 35.8189 115.331 35.661 115.331 35.5257C115.331 35.3452 115.353 35.1647 115.398 34.9843H120.135C120.135 34.8941 120.135 34.8264 120.135 34.7813C120.18 34.7362 120.203 34.6911 120.203 34.6459H115.398C115.488 34.3753 115.534 34.1497 115.534 33.9692H114.789L114.992 33.2925H113.842C113.977 32.7963 114.135 32.3451 114.315 31.9391H114.857L115.128 31.2624H115.872L116.481 30.2473H115.804C115.94 30.0669 116.052 29.909 116.143 29.7736C116.278 29.5932 116.391 29.4127 116.481 29.2323H115.94L116.752 28.2172H118.173C118.218 28.127 118.263 28.0593 118.308 28.0142C118.353 27.9691 118.398 27.924 118.443 27.8788H116.549C116.729 27.6984 116.91 27.5405 117.09 27.4051C117.27 27.2247 117.451 27.0442 117.631 26.8638H118.714C118.985 26.6382 119.255 26.4126 119.526 26.1871C119.797 25.9164 120.09 25.6908 120.406 25.5104H121.624C121.895 25.3299 122.165 25.172 122.436 25.0367C122.707 24.8562 123 24.6758 123.316 24.4953H123.113C123.203 24.4051 123.316 24.3374 123.451 24.2923C123.586 24.2472 123.699 24.2021 123.789 24.1569H122.842C122.932 24.0667 123.045 23.999 123.18 23.9539C123.316 23.9088 123.451 23.8637 123.586 23.8186H122.91C123.541 23.5479 124.195 23.2998 124.872 23.0742C125.594 22.8486 126.316 22.6456 127.038 22.4652H128.053C129.09 22.2396 130.173 22.0591 131.301 21.9238C132.474 21.7885 133.692 21.7208 134.955 21.7208C137.346 21.7208 139.602 21.9689 141.722 22.4652H140.775C142.218 22.781 143.617 23.2321 144.97 23.8186H145.579C145.715 23.8637 145.85 23.9088 145.985 23.9539C146.121 23.999 146.256 24.0667 146.391 24.1569H147.339C147.429 24.2021 147.542 24.2472 147.677 24.2923C147.813 24.3374 147.925 24.4051 148.016 24.4953H148.219C148.534 24.6758 148.828 24.8562 149.098 25.0367C149.414 25.172 149.707 25.3299 149.978 25.5104H148.828C149.189 25.6908 149.504 25.9164 149.775 26.1871C150.091 26.4126 150.384 26.6382 150.655 26.8638H149.64L150.722 27.8788H152.617L152.956 28.2172H151.534C151.715 28.3977 151.873 28.5781 152.008 28.7586C152.189 28.8939 152.347 29.0518 152.482 29.2323H153.023L153.835 30.2473H154.444L155.053 31.2624H154.309C154.444 31.488 154.557 31.7135 154.647 31.9391H154.106C154.241 32.1647 154.354 32.3902 154.444 32.6158C154.535 32.8414 154.625 33.0669 154.715 33.2925H155.865C155.956 33.5632 156.001 33.7888 156.001 33.9692H156.813C156.858 34.0595 156.88 34.1722 156.88 34.3076C156.88 34.4429 156.903 34.5557 156.948 34.6459H161.753V34.9843H157.422C157.467 35.1647 157.49 35.4129 157.49 35.7287V35.9994H154.986C154.805 36.8114 154.354 37.2174 153.632 37.2174H140.098C139.467 37.2174 138.948 37.1272 138.542 36.9467C138.181 36.7663 137.797 36.4956 137.391 36.1347L137.188 35.9994H139.692C139.467 35.8189 139.151 35.6384 138.745 35.458C138.339 35.2324 137.82 35.0745 137.188 34.9843H134.752C133.805 35.1196 133.151 35.458 132.79 35.9994H135.699C135.564 36.27 135.496 36.5407 135.496 36.8114C135.496 37.037 135.519 37.2174 135.564 37.3528H134.549C134.594 37.5783 134.775 37.8039 135.09 38.0295H127.444C127.714 38.2551 128.188 38.4806 128.865 38.7062H130.827C131.188 38.8415 131.617 38.9769 132.113 39.1122C132.654 39.2024 133.218 39.2927 133.805 39.3829H135.97C136.331 39.428 136.715 39.4731 137.121 39.5182C137.527 39.5634 137.955 39.631 138.406 39.7213H138.474C139.241 39.8115 139.985 39.9243 140.707 40.0596C141.429 40.1498 142.106 40.2626 142.737 40.398H143.143C143.685 40.4882 144.181 40.601 144.632 40.7363C145.128 40.8265 145.602 40.9393 146.053 41.0747H146.324C146.549 41.1198 146.752 41.1649 146.933 41.21C147.113 41.2551 147.294 41.3228 147.474 41.413H146.188C146.369 41.4581 146.527 41.5033 146.662 41.5484C146.843 41.5935 147.023 41.6612 147.204 41.7514H150.046C150.181 41.7965 150.316 41.8416 150.452 41.8867C150.632 41.9318 150.79 41.9995 150.925 42.0897H141.384C142.286 42.4507 143.008 42.789 143.549 43.1048H155.392C155.662 43.2853 155.933 43.4657 156.204 43.6462C156.474 43.7815 156.723 43.9394 156.948 44.1199H141.519C141.609 44.165 141.7 44.2101 141.79 44.2552C141.88 44.3003 141.948 44.368 141.993 44.4582H148.489C148.625 44.5485 148.76 44.6612 148.895 44.7966C149.031 44.9319 149.143 45.0447 149.234 45.1349H148.219C148.67 45.541 149.053 45.9921 149.369 46.4884H145.85C145.94 46.5786 146.031 46.6914 146.121 46.8267C146.211 46.962 146.279 47.0748 146.324 47.1651H159.723L160.332 48.1801H147.745C147.835 48.3606 147.925 48.541 148.016 48.7215C148.106 48.8568 148.174 49.0147 148.219 49.1952H154.038L154.241 49.8719H155.189L155.392 50.5486H156.61C156.7 50.7291 156.745 50.9546 156.745 51.2253C156.79 51.4509 156.835 51.6765 156.88 51.902L156.948 52.5787H157.354C157.399 52.669 157.422 52.7817 157.422 52.9171C157.422 53.0524 157.422 53.1652 157.422 53.2554H157.625V54.2705H158.234V54.4735C158.234 54.654 158.211 54.8344 158.166 55.0149C158.166 55.1953 158.166 55.3984 158.166 55.6239H157.49V55.9623H157.625C157.625 56.1427 157.602 56.3232 157.557 56.5036C157.557 56.639 157.535 56.7969 157.49 56.9773H157.693L157.49 57.9924H158.031C157.986 58.1729 157.941 58.3533 157.896 58.5338C157.85 58.6691 157.783 58.827 157.693 59.0075H156.948C156.948 59.0526 156.926 59.0977 156.88 59.1428C156.88 59.1879 156.88 59.2556 156.88 59.3458H158.505L158.099 60.3609H153.565C153.52 60.5413 153.429 60.7218 153.294 60.9023C153.204 61.0376 153.113 61.1955 153.023 61.376H162.565L162.362 61.7143H166.49C166.4 61.8948 166.287 62.0752 166.151 62.2557C166.061 62.391 165.948 62.5489 165.813 62.7294H157.354C157.309 62.7745 157.264 62.8196 157.219 62.8647C157.174 62.9098 157.129 62.9775 157.084 63.0677ZM139.489 34.9843H141.519C141.384 34.9392 141.226 34.9166 141.045 34.9166C140.91 34.9166 140.752 34.9166 140.572 34.9166C140.391 34.9166 140.211 34.9166 140.03 34.9166C139.85 34.9166 139.67 34.9392 139.489 34.9843ZM193.982 62.0527H192.358V62.7294H194.794V63.4061H197.027V64.4211H195.471V65.4362H200.005V66.4513H192.629V67.8047H193.17V67.94C193.17 68.0303 193.148 68.0979 193.102 68.143C193.012 68.5942 192.854 68.9325 192.629 69.1581H192.087C191.907 69.3386 191.772 69.4514 191.681 69.4965H193.982C193.757 69.6769 193.441 69.7672 193.035 69.7672H185.388C184.621 69.7672 183.854 69.7446 183.087 69.6995C182.365 69.6544 181.666 69.5867 180.989 69.4965H178.689C178.373 69.4514 178.057 69.4062 177.741 69.3611C177.425 69.2709 177.087 69.2032 176.726 69.1581H177.267C176.681 69.0228 176.117 68.8649 175.576 68.6844C175.079 68.504 174.583 68.3235 174.087 68.143H174.155C174.019 68.0528 173.884 67.9851 173.749 67.94C173.613 67.8949 173.5 67.8498 173.41 67.8047H172.869C172.508 67.5791 172.147 67.3761 171.786 67.1957C171.425 66.9701 171.064 66.722 170.703 66.4513H178.147C177.967 66.2708 177.764 66.1129 177.538 65.9776C177.358 65.7971 177.177 65.6167 176.997 65.4362H172.463L171.583 64.4211H173.207C173.072 64.2407 172.936 64.0828 172.801 63.9475C172.711 63.767 172.621 63.5865 172.53 63.4061H170.297L169.891 62.7294H167.455C167.41 62.6391 167.365 62.5264 167.32 62.391C167.275 62.2557 167.207 62.1429 167.117 62.0527H168.809L168.403 61.0376H169.756L169.553 60.3609C169.463 60.0902 169.418 59.8646 169.418 59.6842H174.764C174.718 59.5037 174.673 59.3458 174.628 59.2105C174.628 59.03 174.628 58.8496 174.628 58.6691H166.914C166.914 58.5789 166.891 58.5112 166.846 58.4661C166.846 58.421 166.846 58.3759 166.846 58.3308H166.643C166.643 58.1503 166.621 57.9924 166.575 57.8571C166.575 57.6766 166.575 57.4962 166.575 57.3157H166.372C166.372 57.1352 166.35 56.9773 166.305 56.842C166.305 56.6615 166.305 56.4811 166.305 56.3006H167.252V55.9623H166.643V55.2856H166.102V53.9322H166.914V52.5787H166.102V51.5637H166.711V50.887H166.778V49.8719H167.117V47.5034H167.252V46.4884H167.59V46.4207H162.244C161.568 46.4207 161.026 46.1049 160.62 45.4733H161.635C161.5 45.2026 161.432 44.9094 161.432 44.5936V44.1199H159.267V43.1048H159.741V41.7514H159.402V41.0747H159.538V40.398H160.553V40.0596H158.861V39.0445H160.891V38.0295H160.485V37.3528H160.011V36.3377H159.605V35.9994H159.402C159.538 35.3226 159.966 34.8715 160.688 34.6459H161.094C161.229 34.6008 161.41 34.5783 161.635 34.5783H166.981V34.3076H167.252V33.2925H166.711V32.6158H166.643V31.6007H166.372V31.2624H164.748V30.5857H163.192V30.2473H163.733V29.909H165.29V28.5556H165.899V27.8788H163.733V27.2021H167.049V26.1871H166.711V25.8487H165.966V25.172H166.643V24.8337H165.966V23.8186H166.575V23.5479C166.575 23.3223 166.621 23.0742 166.711 22.8035H167.59C167.906 22.0817 168.47 21.7208 169.282 21.7208H181.125C181.846 21.7208 182.41 22.0817 182.816 22.8035H181.937C182.027 23.0742 182.072 23.3223 182.072 23.5479V23.8186H181.463V24.8337H182.14V25.172H181.463V25.8487H182.207V26.1871H182.546V27.2021H179.23V27.8788H181.395V28.5556H180.786V29.909H179.23V30.2473H178.689V30.5857H180.245V31.2624H181.869V31.6007H182.14V32.6158H182.207V33.2925H182.749V34.3076H182.478V34.5783H191.005C191.23 34.5783 191.388 34.6008 191.478 34.6459H191.072C191.704 34.8715 192.132 35.3226 192.358 35.9994H192.561C192.561 36.0445 192.561 36.0896 192.561 36.1347C192.606 36.1798 192.629 36.2475 192.629 36.3377H193.035V37.3528H193.508V38.0295H193.914V39.0445H191.884V40.0596H193.576V40.398H192.561V41.0747H192.426V41.7514H192.764V43.1048H192.29V44.1199H194.456V44.5936C194.456 44.774 194.433 44.9319 194.388 45.0673C194.343 45.2026 194.275 45.3379 194.185 45.4733H193.238C192.832 46.1049 192.29 46.4207 191.614 46.4207H183.087V46.4884H182.749V47.5034H182.613V49.8719H182.275V50.887H182.207V51.5637H181.598V52.5787H182.41V53.9322H181.598C181.598 54.1577 181.598 54.3833 181.598 54.6089C181.643 54.8344 181.689 55.06 181.734 55.2856H182.343C182.433 55.5563 182.523 55.7818 182.613 55.9623H183.155L183.358 56.3006H182.41C182.907 56.9322 183.674 57.248 184.711 57.248H190.869C191.095 57.248 191.253 57.2706 191.343 57.3157H191.546C192.087 57.451 192.471 57.7894 192.696 58.3308H192.899C192.899 58.3759 192.899 58.421 192.899 58.4661C192.945 58.5112 192.967 58.5789 192.967 58.6691H200.682C200.682 58.7142 200.682 58.7819 200.682 58.8721C200.727 58.9172 200.749 58.9849 200.749 59.0751V59.6842H195.336V61.0376H193.982V62.0527ZM232.299 51.2253V51.902H240.893V52.5787H235.683V53.2554H233.247V53.9322H235.344V54.3382C235.344 54.6089 235.322 54.8119 235.277 54.9472H236.224C235.908 55.7593 235.322 56.1653 234.465 56.1653H214.299V56.3006H217.006V56.5036C217.006 56.6841 217.006 56.8871 217.006 57.1127C217.006 57.2931 217.028 57.4736 217.073 57.6541H213.419C213.419 57.7894 213.419 57.9247 213.419 58.0601C213.464 58.1503 213.487 58.2405 213.487 58.3308H213.081C213.081 58.5112 213.126 58.7368 213.216 59.0075H213.487C213.712 59.6391 214.073 60.0902 214.569 60.3609H212.742C213.058 60.5413 213.487 60.6316 214.028 60.6316C214.389 60.6316 214.682 60.5413 214.908 60.3609H218.088C218.269 60.2707 218.427 60.1353 218.562 59.9549C218.742 59.7744 218.945 59.594 219.171 59.4135L219.577 59.0075H218.291C218.697 58.6466 219.306 58.4661 220.118 58.4661H232.908C233.45 58.4661 233.856 58.6466 234.126 59.0075H235.344C235.57 59.3233 235.683 59.6391 235.683 59.9549C235.638 60.0451 235.615 60.1804 235.615 60.3609H232.435C232.344 60.812 232.209 61.2632 232.029 61.7143H228.713C228.577 61.9399 228.465 62.1654 228.374 62.391H236.766C236.675 62.6166 236.54 62.8422 236.359 63.0677C236.224 63.2933 236.066 63.5189 235.886 63.7444H233.856C233.675 64.0151 233.495 64.2407 233.314 64.4211H233.788C233.743 64.4663 233.698 64.5114 233.653 64.5565C233.608 64.6016 233.562 64.6693 233.517 64.7595H229.728L229.389 65.0979H230.54C230.495 65.143 230.427 65.1881 230.337 65.2332C230.292 65.2783 230.247 65.346 230.201 65.4362H232.299C231.983 65.752 231.577 66.0904 231.081 66.4513H230.066C230.021 66.4964 229.953 66.5415 229.863 66.5866C229.773 66.6317 229.683 66.6994 229.592 66.7896H228.848C228.126 67.2859 227.337 67.737 226.48 68.143H225.6C225.058 68.4137 224.472 68.6619 223.84 68.8874C223.254 69.113 222.622 69.316 221.946 69.4965H220.863C220.367 69.6318 219.848 69.7446 219.306 69.8348C218.765 69.9702 218.179 70.0829 217.547 70.1732H220.389C219.758 70.2634 219.103 70.3311 218.427 70.3762C217.75 70.4213 217.028 70.4439 216.261 70.4439C215.539 70.4439 214.818 70.4213 214.096 70.3762C213.374 70.3311 212.675 70.2634 211.998 70.1732H209.156C208.569 70.0829 208.005 69.9702 207.464 69.8348C206.923 69.7446 206.381 69.6318 205.84 69.4965H206.923C205.705 69.1807 204.554 68.7295 203.471 68.143H204.351C203.539 67.6919 202.84 67.2408 202.253 66.7896H202.998C202.907 66.6994 202.817 66.6317 202.727 66.5866C202.682 66.5415 202.614 66.4964 202.524 66.4513H203.539C203.359 66.2708 203.178 66.1129 202.998 65.9776C202.817 65.7971 202.637 65.6167 202.456 65.4362H200.291L199.953 65.0979H198.802C198.757 65.0076 198.712 64.94 198.667 64.8948C198.622 64.8497 198.577 64.8046 198.531 64.7595H202.253C202.208 64.6693 202.118 64.5565 201.983 64.4211H201.509C201.419 64.3309 201.328 64.2181 201.238 64.0828C201.148 63.9475 201.058 63.8347 200.968 63.7444H202.998C202.862 63.5189 202.727 63.2933 202.592 63.0677C202.456 62.8422 202.321 62.6166 202.186 62.391H193.727C193.591 62.1654 193.479 61.9399 193.388 61.7143H196.704L196.095 60.3609H197.922C197.832 60.1353 197.742 59.9098 197.652 59.6842C197.607 59.4586 197.539 59.233 197.449 59.0075H197.246L197.043 58.3308H197.516L197.313 57.6541H200.968C200.922 57.4285 200.877 57.2029 200.832 56.9773C200.787 56.7518 200.742 56.5262 200.697 56.3006H197.99L197.855 54.9472H196.907C196.907 54.7668 196.885 54.6089 196.84 54.4735C196.84 54.2931 196.84 54.1126 196.84 53.9322H194.742V53.2554H197.11V52.5787H202.321V51.902H193.727V51.7667C193.727 51.5411 193.749 51.3607 193.794 51.2253H205.502C205.502 51.0449 205.502 50.887 205.502 50.7516C205.547 50.5712 205.569 50.3907 205.569 50.2103H194.81C194.81 50.12 194.81 50.0524 194.81 50.0072C194.855 49.9621 194.877 49.917 194.877 49.8719H199.343C199.343 49.7366 199.366 49.6238 199.411 49.5335H204.419V49.1952H194.877C194.922 48.9696 194.967 48.744 195.013 48.5185C195.058 48.2929 195.103 48.0673 195.148 47.8418H197.719C197.719 47.6613 197.764 47.4357 197.855 47.1651H195.622C195.622 47.0748 195.622 47.0072 195.622 46.962C195.667 46.9169 195.689 46.8718 195.689 46.8267H197.313C197.313 46.7365 197.313 46.6688 197.313 46.6237C197.358 46.5786 197.381 46.5335 197.381 46.4884H195.689L195.825 46.15H197.449L197.652 45.4733H198.937L199.343 44.4582H198.125C198.216 44.2327 198.306 44.0071 198.396 43.7815C198.486 43.5108 198.599 43.2853 198.734 43.1048H198.531L198.667 42.7664H196.975C197.065 42.586 197.11 42.4732 197.11 42.4281H195.554L195.96 41.7514H199.276C199.321 41.6612 199.411 41.5484 199.546 41.413H200.765C200.945 41.1875 201.103 40.9619 201.238 40.7363C201.419 40.4656 201.599 40.2401 201.78 40.0596H200.562C200.697 39.8792 200.832 39.7213 200.968 39.5859C201.148 39.4055 201.328 39.225 201.509 39.0445H204.148L204.825 38.3678H200.832C201.419 37.8716 202.005 37.4204 202.592 37.0144H206.314L206.855 36.6761H205.637C205.998 36.4505 206.426 36.2249 206.923 35.9994H209.562C210.78 35.4129 212.043 34.9617 213.351 34.6459H209.562C210.554 34.4204 211.592 34.2399 212.675 34.1046C213.757 33.9692 214.885 33.9016 216.058 33.9016C217.231 33.9016 218.336 33.9692 219.374 34.1046C220.412 34.2399 221.404 34.4204 222.352 34.6459H226.073C226.75 34.8264 227.382 35.0294 227.968 35.255C228.6 35.4805 229.209 35.7287 229.795 35.9994H227.156C227.382 36.0896 227.585 36.2024 227.765 36.3377C227.991 36.4279 228.194 36.5407 228.374 36.6761H229.592C229.683 36.7212 229.773 36.7663 229.863 36.8114C229.953 36.8565 230.044 36.9242 230.134 37.0144H226.412C226.998 37.4204 227.585 37.8716 228.171 38.3678H232.232L232.908 39.0445H230.269C230.45 39.225 230.607 39.4055 230.743 39.5859C230.923 39.7213 231.081 39.8792 231.216 40.0596H232.435C232.615 40.2401 232.773 40.4656 232.908 40.7363C233.089 40.9619 233.269 41.1875 233.45 41.413H232.164C232.209 41.5033 232.299 41.616 232.435 41.7514H229.051L229.457 42.4281H231.013L231.216 42.7664H232.976C232.976 42.8116 233.021 42.9243 233.111 43.1048H233.314L233.923 44.4582L234.329 45.4733H234.397L234.6 46.15H233.788L233.923 46.4884H234.532L234.668 46.8267H235.75C235.75 46.8718 235.75 46.9169 235.75 46.962C235.796 47.0072 235.818 47.0748 235.818 47.1651H235.277L235.48 47.8418H232.908L233.111 49.1952H242.653V49.5335H237.645C237.645 49.5787 237.645 49.6238 237.645 49.6689C237.69 49.714 237.713 49.7817 237.713 49.8719H233.179C233.224 49.9621 233.247 50.0749 233.247 50.2103H244.006C244.006 50.3907 244.006 50.5712 244.006 50.7516C244.006 50.887 244.029 51.0449 244.074 51.2253H232.299ZM211.727 46.8267V47.1651H213.893V47.7064H219.306V47.1651H219.78V46.8267H218.697V46.4884H218.021C218.021 46.353 217.998 46.2402 217.953 46.15H218.765C218.765 45.9695 218.72 45.744 218.63 45.4733H218.562C218.517 45.0673 218.382 44.7289 218.156 44.4582C217.705 43.7364 217.006 43.3755 216.058 43.3755C215.156 43.3755 214.479 43.7364 214.028 44.4582H215.246C215.066 44.7289 214.93 45.0673 214.84 45.4733H213.487C213.487 45.5635 213.464 45.6763 213.419 45.8116C213.419 45.9019 213.396 46.0147 213.351 46.15H211.727C211.727 46.2853 211.705 46.3981 211.66 46.4884H213.351V46.8267H211.727ZM283.394 55.9623H277.033C277.033 56.1879 277.01 56.4134 276.965 56.639C276.965 56.8646 276.943 57.0901 276.898 57.3157H279.198C279.198 57.451 279.176 57.5638 279.131 57.6541H279.537C279.492 57.8345 279.446 58.015 279.401 58.1954C279.401 58.3308 279.401 58.4887 279.401 58.6691H278.386C278.341 58.8496 278.296 59.03 278.251 59.2105C278.251 59.3458 278.206 59.5037 278.116 59.6842H279.266C279.266 59.8195 279.243 59.9323 279.198 60.0225H278.792C278.747 60.2481 278.702 60.4737 278.657 60.6992C278.612 60.9248 278.544 61.1504 278.454 61.376H278.386C278.251 61.782 278.07 62.2331 277.845 62.7294H277.913C277.822 62.9549 277.71 63.1805 277.574 63.4061H277.507L277.304 63.7444H275.138L274.529 64.7595H272.702L272.499 65.0979H270.063C269.882 65.3234 269.702 65.549 269.521 65.7746C269.386 66.0001 269.206 66.2257 268.98 66.4513H278.725C278.634 66.5866 278.522 66.722 278.386 66.8573C278.251 66.9475 278.138 67.0378 278.048 67.128H270.266L269.86 67.4663H274.529C274.213 67.737 273.875 67.9851 273.514 68.2107C273.198 68.3912 272.86 68.5942 272.499 68.8198H269.724C269.138 69.1356 268.506 69.4062 267.83 69.6318C267.153 69.8574 266.431 70.0378 265.664 70.1732H268.439C267.942 70.2634 267.424 70.3311 266.882 70.3762C266.341 70.4213 265.777 70.4439 265.19 70.4439C264.649 70.4439 264.108 70.4213 263.566 70.3762C263.07 70.3311 262.574 70.2634 262.078 70.1732H259.303C257.95 69.9025 256.664 69.4514 255.446 68.8198H252.807C252.401 69.4514 251.859 69.7672 251.183 69.7672H239.679C238.957 69.7672 238.438 69.4514 238.122 68.8198H240.897C240.761 68.5491 240.694 68.2558 240.694 67.94V67.4663H239.002V67.128H237.242V66.4513H233.52V65.0979H235.889V64.7595H237.716V63.7444H239.882V63.4061H240.017V62.7294H239.949V61.376H240.017V60.0225H240.423V59.6842H239.272V58.6691H240.288V57.3157H240.761V55.9623H238.663V55.6239H240.085V54.2705H247.19V53.2554H245.295V52.9171H239.814V51.902H239.679V51.5637H239.882V50.2103H240.829V49.1952H240.355V48.1801H240.22V47.5034H240.694V46.15H239.002V44.7966H239.543V43.7815H238.122V43.1048H239.746V42.0897H240.017V40.7363H238.46V39.7213H240.355V37.3528H237.242V35.9994H238.122V35.661H240.017V34.3076H240.288V33.9692H240.423V33.6309H238.799V33.2925H240.964V32.2775H240.423V31.9391H239.949V30.924H241.641V30.2473H243.536V29.2323H242.115V27.8788H239.272V27.5405H240.085V26.8638H239.34V26.5254H237.175V25.172H239.002V24.8337H239.679V23.8186H239.137V23.4802H240.017C240.017 22.9389 240.242 22.4877 240.694 22.1268H240.152C240.513 21.8561 240.897 21.7208 241.303 21.7208H253.822C254.318 21.7208 254.701 21.8561 254.972 22.1268H255.514C255.965 22.4877 256.19 22.9389 256.19 23.4802H255.311V23.8186H255.852V24.8337H255.175V25.172H253.348V26.5254H255.514V26.8638H256.258V27.5405H255.446V27.8788H258.288V29.2323H259.709V30.2473H257.814V30.924H256.123V31.9391H256.596V32.2775H257.138V33.2925H254.972V33.6309H256.596V33.9692H256.461V34.3076H256.19V35.661H254.295V35.9994H253.416V37.0821C253.641 36.8565 253.867 36.6761 254.092 36.5407C254.318 36.3603 254.566 36.1798 254.837 35.9994H257.408C257.499 35.9091 257.589 35.8415 257.679 35.7963C257.814 35.7512 257.905 35.7061 257.95 35.661H258.694C259.777 35.0294 260.927 34.5783 262.145 34.3076H261.536C261.897 34.2174 262.235 34.1497 262.551 34.1046C262.912 34.0595 263.273 34.0143 263.634 33.9692H263.296C263.521 33.9241 263.747 33.9016 263.972 33.9016C264.243 33.9016 264.514 33.9016 264.784 33.9016C265.055 33.9016 265.326 33.9016 265.596 33.9016C265.867 33.9016 266.115 33.9241 266.341 33.9692H266.679C267.04 34.0143 267.401 34.0595 267.762 34.1046C268.168 34.1497 268.529 34.2174 268.845 34.3076H269.454C270.717 34.5783 271.912 35.0294 273.04 35.661H272.296C272.386 35.7061 272.476 35.7512 272.567 35.7963C272.702 35.8415 272.792 35.9091 272.837 35.9994H270.266C270.582 36.1798 270.875 36.3828 271.145 36.6084C271.461 36.834 271.755 37.0821 272.025 37.3528H275.138C275.364 37.5332 275.567 37.7588 275.747 38.0295C275.973 38.2551 276.176 38.4806 276.356 38.7062C276.492 38.8866 276.627 39.0671 276.762 39.2476C276.898 39.3829 277.01 39.5408 277.101 39.7213H275.206C275.476 40.0371 275.679 40.3754 275.815 40.7363H277.371C277.461 40.9168 277.574 41.1423 277.71 41.413C277.845 41.6386 277.958 41.8642 278.048 42.0897H277.71L278.116 43.1048H276.559L276.762 43.7815H278.183C278.228 43.962 278.274 44.1424 278.319 44.3229C278.364 44.4582 278.409 44.6161 278.454 44.7966H277.913C278.003 44.977 278.048 45.2026 278.048 45.4733C278.093 45.6989 278.138 45.9244 278.183 46.15H279.604L279.807 47.5034H278.183C278.183 47.5936 278.183 47.7064 278.183 47.8418C278.183 47.9771 278.206 48.0899 278.251 48.1801H279.604C279.604 48.3606 279.604 48.541 279.604 48.7215C279.649 48.8568 279.672 49.0147 279.672 49.1952H279.401V50.2103H279.537C279.582 50.4358 279.604 50.6614 279.604 50.887C279.604 51.1125 279.604 51.3381 279.604 51.5637H279.198V51.902H280.552V52.9171H280.349V53.2554H283.259V54.2705H278.116V54.8119C278.116 54.9472 278.116 55.0826 278.116 55.2179C278.116 55.3532 278.093 55.4886 278.048 55.6239H283.462C283.416 55.7142 283.394 55.8269 283.394 55.9623ZM255.92 52.9171H261.401V53.2554H263.296C263.296 53.4359 263.296 53.6164 263.296 53.7968C263.341 53.9322 263.363 54.0901 263.363 54.2705H266.679C266.679 54.0901 266.679 53.9322 266.679 53.7968C266.724 53.6164 266.747 53.4359 266.747 53.2554H263.769V52.9171H264.04V51.902H262.619V51.5637H263.025C263.025 51.3381 263.025 51.1125 263.025 50.887C263.025 50.6163 263.002 50.3907 262.957 50.2103H262.822V49.9396C262.777 49.8042 262.754 49.6914 262.754 49.6012C262.754 49.4659 262.732 49.3305 262.687 49.1952H263.025C262.98 49.0147 262.935 48.8568 262.89 48.7215C262.89 48.541 262.845 48.3606 262.754 48.1801H261.401C261.311 47.9094 261.22 47.6839 261.13 47.5034H262.754C262.393 46.7816 261.852 46.3305 261.13 46.15H259.709C259.529 46.1049 259.348 46.0823 259.168 46.0823C258.987 46.0372 258.784 46.0147 258.559 46.0147C258.378 46.0147 258.175 46.0372 257.95 46.0823C257.769 46.0823 257.589 46.1049 257.408 46.15H259.032C258.311 46.3305 257.724 46.7816 257.273 47.5034H256.867C256.777 47.6839 256.686 47.9094 256.596 48.1801H256.732C256.686 48.3606 256.641 48.541 256.596 48.7215C256.596 48.8568 256.574 49.0147 256.529 49.1952H257.002V49.3982C257.002 49.5335 256.98 49.6689 256.935 49.8042C256.935 49.9396 256.935 50.0749 256.935 50.2103H255.987C255.942 50.4358 255.92 50.6614 255.92 50.887C255.92 51.1125 255.92 51.3381 255.92 51.5637H255.717V51.902H255.852C255.852 52.0825 255.852 52.2629 255.852 52.4434C255.852 52.5787 255.874 52.7366 255.92 52.9171ZM261.942 57.3157H259.641C259.912 56.9999 260.115 56.5488 260.25 55.9623H266.612C266.657 55.8721 266.679 55.7593 266.679 55.6239H261.333L261.536 54.4058V54.2705H256.258V54.4058C256.303 54.5863 256.326 54.7893 256.326 55.0149C256.326 55.1953 256.348 55.3984 256.393 55.6239H254.972L255.107 55.9623H257.205C257.296 56.233 257.363 56.4811 257.408 56.7067C257.499 56.9322 257.634 57.1352 257.814 57.3157H257.273C257.318 57.3608 257.363 57.4059 257.408 57.451C257.499 57.4962 257.566 57.5638 257.611 57.6541C258.153 58.1052 258.897 58.3308 259.844 58.3308C260.747 58.3308 261.469 58.1052 262.01 57.6541H261.604C261.694 57.5638 261.762 57.4962 261.807 57.451C261.852 57.4059 261.897 57.3608 261.942 57.3157ZM259.1 67.128C258.965 67.0378 258.829 66.925 258.694 66.7896C258.604 66.6543 258.514 66.5415 258.423 66.4513H252.401V67.128H259.1ZM258.22 68.8198C257.499 68.3686 256.867 67.9175 256.326 67.4663H255.852V67.94C255.852 68.2558 255.784 68.5491 255.649 68.8198H258.22Z" fill="#141414"/>
<path d="M53.4043 13.1113C53.7095 12.5827 54.4438 12.5494 54.8027 13.0117L54.8691 13.1113L90.0322 74.0146C90.3578 74.5785 89.9508 75.284 89.2998 75.2842H18.9736C18.3633 75.284 17.9673 74.6641 18.1885 74.1221L18.2412 74.0146L53.4043 13.1113Z" stroke="#FF1E46" stroke-width="11.8424"/>
</svg>
