<?xml version="1.0" encoding="utf-8"?>
<!-- Generator: Adobe Illustrator 26.3.1, SVG Export Plug-In . SVG Version: 6.00 Build 0)  -->
<svg version="1.1" id="Layer_1" xmlns="http://www.w3.org/2000/svg" xmlns:xlink="http://www.w3.org/1999/xlink" x="0px" y="0px"
	 viewBox="0 0 299 109" style="enable-background:new 0 0 299 109;" xml:space="preserve">
<style type="text/css">
	.st0{fill:#141414;}
	.st1{fill:#FFFFFF;}
</style>
<g id="XMLID_00000097465240240968748890000005891556967458780085_">
	<path id="XMLID_00000134933882212887838200000000014919614318508417_" class="st0" d="M94.1,40l9.5-24c0.5-1.1,0.3-1.7-0.3-1.7
		s-1.3,0.6-1.7,1.7l-8.7,21.7c-0.3,0.8-0.5,1.4-0.5,2c0,0.5,0.3,1.1,0.9,1.6s1.7,1.1,3.2,1.8s3.7,1.6,6.6,2.7l3.9,1.6
		c2.5,1,4.5,2.1,5.9,3.3s2.3,2.6,2.7,4.2c0.4,1.6,0.4,3.5-0.1,5.7s-1.3,4.9-2.6,8l-0.5,1.4c-2.5,6.3-7.2,11.2-14,14.6
		c-6.9,3.4-15.5,5.1-25.8,5.1c-10.2,0-17.3-1.7-21.3-5s-4.7-8.2-2-14.6l2.7-6.7h30.6l-9.7,24c-0.5,1.1-0.3,1.7,0.3,1.7
		c0.7,0,1.2-0.5,1.7-1.6l8.9-22c0.3-0.8,0.5-1.4,0.5-1.9s-0.3-1-0.9-1.5s-1.5-1.1-2.9-1.7c-1.4-0.6-3.3-1.5-5.8-2.5L70.1,56
		c-2.6-1.1-4.7-2.2-6.1-3.4c-1.5-1.2-2.4-2.7-2.9-4.4s-0.5-3.7,0-5.9s1.3-4.9,2.6-8l0.9-2c2.3-5.9,6.7-10.5,13.4-13.7
		c6.6-3.2,15-4.8,25.1-4.8c10.2,0,17.4,1.7,21.7,5.1c4.3,3.4,5.1,8.2,2.5,14.4l-2.7,6.9H94.1V40z"/>
	<polygon id="XMLID_00000101105546237285556510000000292520267864729997_" class="st0" points="67.1,74.7 76.6,63.2 91.6,63.2 
		80.3,89.3 68.5,88.8 	"/>
	<polygon id="XMLID_00000031196348260477533270000009608238157917187998_" class="st0" points="98.9,40 83.3,40 99.3,14.4 
		104.6,14.4 112.7,30.9 	"/>
	<path id="XMLID_00000137133926762251058610000002880347707958427055_" class="st1" d="M139.1,71.6C88,51.1,88,51.1,67.5,102.2
		C88,51.1,88,51.1,36.9,30.6c51,20.5,51,20.5,71.5-30.6C87.9,51.1,87.9,51.1,139.1,71.6z"/>
	<path id="XMLID_00000166660222273230494060000010405897740919073969_" class="st0" d="M173.8,31.5l-10.7-0.1l-20.6,51.3h-21.4
		l20.6-51.2L131,31.4l0.2-0.4l42.9-0.1L173.8,31.5z"/>
	<path id="XMLID_00000023968495629515641910000006857534715857457563_" class="st0" d="M195.6,31.4l-9.5,23.8h9.5l-0.2,0.4h-9.5
		l-10.7,26.6h9.5l-0.1,0.4h-31L174.3,31h31.1l-0.2,0.4H195.6z"/>
	<path id="XMLID_00000175283203932917344000000017593704934544070050_" class="st0" d="M231.5,31c7.1,0,12.1,1.1,15.2,3.2
		c3.1,2.1,3.8,5.1,2.3,8.7l-0.5,1.1c-1.6,3.9-4.5,6.9-8.6,9c-4.2,2.1-9.4,3.1-15.6,3.1v0.1c3,0,5.7,0.3,7.9,0.9
		c2.3,0.6,4.1,1.5,5.4,2.6c1.4,1.1,2.2,2.4,2.6,4c0.4,1.6,0.1,3.3-0.7,5.2l-0.4,1c-1.6,4-4.9,7.1-10,9.3c-5.1,2.2-11.3,3.4-18.6,3.4
		h-21.9L209.4,31H231.5z M210.3,82.2h0.2c0.6,0,1-0.1,1.2-0.2s0.3-0.5,0.5-1l9.4-23.4c0.2-0.5,0.3-0.9,0.3-1s-0.4-0.2-1-0.2h-0.2
		L210.3,82.2z M220.9,56h0.2c0.6,0,1-0.1,1.1-0.2c0.1-0.1,0.3-0.5,0.5-1l8.9-22.2c0.2-0.5,0.2-0.9,0.2-1s-0.3-0.2-1-0.2h-0.2
		L220.9,56z"/>
</g>
</svg>
