<svg width="46" height="46" viewBox="0 0 46 46" fill="none" xmlns="http://www.w3.org/2000/svg">
<path d="M43.2071 24.9572C42.8531 28.7871 41.4157 32.4371 39.0631 35.48C36.7105 38.5228 33.5399 40.8327 29.9224 42.1394C26.3049 43.4461 22.39 43.6955 18.6359 42.8584C14.8818 42.0213 11.4438 40.1324 8.72406 37.4127C6.00433 34.693 4.11542 31.2549 3.27835 27.5008C2.44127 23.7467 2.69066 19.8319 3.99734 16.2144C5.30401 12.5968 7.61392 9.42626 10.6568 7.07363C13.6996 4.721 17.3496 3.28362 21.1796 2.92969C18.9372 5.96329 17.8582 9.70095 18.1388 13.4629C18.4193 17.2248 20.0407 20.7611 22.7082 23.4285C25.3757 26.096 28.912 27.7175 32.6739 27.998C36.4358 28.2785 40.1735 27.1995 43.2071 24.9572Z" stroke="#FF1E46" stroke-width="4.5" stroke-linecap="round" stroke-linejoin="round"/>
</svg>
