<svg width="40" height="39" viewBox="0 0 40 39" fill="none" xmlns="http://www.w3.org/2000/svg">
<path d="M37.1702 18.6374C37.1767 21.1534 36.5889 23.6353 35.4546 25.881C34.1096 28.5721 32.042 30.8356 29.4833 32.4179C26.9246 34.0003 23.9759 34.839 20.9674 34.8402C18.4514 34.8468 15.9695 34.2589 13.7238 33.1246L2.8584 36.7464L6.4802 25.881C5.34587 23.6353 4.75805 21.1534 4.76461 18.6374C4.76577 15.6289 5.60451 12.6802 7.18687 10.1215C8.76922 7.5628 11.0327 5.49517 13.7238 4.15021C15.9695 3.01589 18.4514 2.42806 20.9674 2.43462H21.9205C25.8937 2.65382 29.6464 4.33085 32.4602 7.1446C35.274 9.95835 36.951 13.7111 37.1702 17.6843V18.6374Z" stroke="#E8F0F0" stroke-width="3.7784" stroke-linecap="round" stroke-linejoin="round"/>
</svg>
