<svg width="50" height="49" viewBox="0 0 50 49" fill="none" xmlns="http://www.w3.org/2000/svg">
<path d="M34 16.6785C37.5804 16.6785 41.0142 18.1008 43.5459 20.6325C46.0777 23.1643 47.5 26.598 47.5 30.1785V45.9285H38.5V30.1785C38.5 28.985 38.0259 27.8404 37.182 26.9965C36.3381 26.1526 35.1935 25.6785 34 25.6785C32.8065 25.6785 31.6619 26.1526 30.818 26.9965C29.9741 27.8404 29.5 28.985 29.5 30.1785V45.9285H20.5V30.1785C20.5 26.598 21.9223 23.1643 24.4541 20.6325C26.9858 18.1008 30.4196 16.6785 34 16.6785Z" stroke="#FF1E46" stroke-width="4.5" stroke-linecap="round" stroke-linejoin="round"/>
<path d="M11.5 18.9285H2.5V45.9285H11.5V18.9285Z" stroke="#FF1E46" stroke-width="4.5" stroke-linecap="round" stroke-linejoin="round"/>
<path d="M7 12.1785C9.48528 12.1785 11.5 10.1637 11.5 7.67847C11.5 5.19319 9.48528 3.17847 7 3.17847C4.51472 3.17847 2.5 5.19319 2.5 7.67847C2.5 10.1637 4.51472 12.1785 7 12.1785Z" stroke="#FF1E46" stroke-width="4.5" stroke-linecap="round" stroke-linejoin="round"/>
</svg>
