<svg width="50" height="51" viewBox="0 0 50 51" fill="none" xmlns="http://www.w3.org/2000/svg">
<path d="M36.25 3.05347H13.75C7.5368 3.05347 2.5 8.09026 2.5 14.3035V36.8035C2.5 43.0167 7.5368 48.0535 13.75 48.0535H36.25C42.4632 48.0535 47.5 43.0167 47.5 36.8035V14.3035C47.5 8.09026 42.4632 3.05347 36.25 3.05347Z" stroke="#FF1E46" stroke-width="4.5" stroke-linecap="round" stroke-linejoin="round"/>
<path d="M34.0001 24.1359C34.2777 26.0085 33.9579 27.9209 33.086 29.6012C32.2142 31.2815 30.8347 32.6441 29.1437 33.4952C27.4528 34.3463 25.5366 34.6425 23.6676 34.3418C21.7986 34.041 20.072 33.1586 18.7335 31.82C17.3949 30.4815 16.5125 28.7549 16.2117 26.8859C15.911 25.0169 16.2072 23.1007 17.0583 21.4098C17.9094 19.7188 19.272 18.3393 20.9523 17.4675C22.6326 16.5956 24.545 16.2757 26.4176 16.5534C28.3277 16.8367 30.096 17.7267 31.4614 19.0921C32.8268 20.4575 33.7168 22.2258 34.0001 24.1359Z" stroke="#FF1E46" stroke-width="4.5" stroke-linecap="round" stroke-linejoin="round"/>
<path d="M37.375 13.1785H37.3975" stroke="#FF1E46" stroke-width="4.5" stroke-linecap="round" stroke-linejoin="round"/>
</svg>
